<svg width="57" height="57" viewBox="0 0 57 57" fill="none" xmlns="http://www.w3.org/2000/svg">
<path d="M56.1521 11.7255C54.169 12.6042 52.0386 13.198 49.799 13.4664C52.1098 12.0836 53.8387 9.90735 54.663 7.34362C52.4919 8.63322 50.1157 9.54096 47.6377 10.0274C45.9714 8.24818 43.7642 7.0689 41.359 6.67262C38.9537 6.27635 36.4849 6.68525 34.3359 7.83585C32.1869 8.98644 30.4778 10.8144 29.4741 13.0358C28.4704 15.2572 28.2281 17.7479 28.785 20.1211C24.3857 19.9002 20.0821 18.7568 16.1533 16.765C12.2246 14.7732 8.75859 11.9776 5.98022 8.55962C5.03022 10.1984 4.48397 12.0984 4.48397 14.1219C4.48291 15.9435 4.93149 17.7372 5.78993 19.3439C6.64836 20.9505 7.8901 22.3205 9.40497 23.3321C7.64812 23.2762 5.93004 22.8015 4.39372 21.9475V22.09C4.39354 24.6449 5.27729 27.1211 6.89503 29.0986C8.51276 31.0761 10.7648 32.433 13.2691 32.939C11.6393 33.3801 9.93064 33.445 8.27209 33.129C8.97865 35.3273 10.355 37.2497 12.2083 38.6269C14.0617 40.0042 16.2994 40.7674 18.6081 40.8097C14.6889 43.8863 9.84882 45.5552 4.86634 45.5479C3.98375 45.5481 3.1019 45.4966 2.22534 45.3935C7.28285 48.6453 13.1701 50.3711 19.1828 50.3644C39.5366 50.3644 50.6635 33.5066 50.6635 18.8861C50.6635 18.4111 50.6516 17.9314 50.6302 17.4564C52.7945 15.8912 54.6628 13.953 56.1473 11.7326L56.1521 11.7255Z" fill="white"/>
</svg>
