<svg width="226" height="46" viewBox="0 0 226 46" fill="none" xmlns="http://www.w3.org/2000/svg">
<g filter="url(#filter0_d_83_132)">
<path d="M3 10C3 4.47715 7.47715 0 13 0H213C218.523 0 223 4.47715 223 10V29C223 34.5228 218.523 39 213 39H13C7.47716 39 3 34.5228 3 29V10Z" fill="#FDFDFD"/>
<path d="M3.5 10C3.5 4.75329 7.75329 0.5 13 0.5H213C218.247 0.5 222.5 4.7533 222.5 10V29C222.5 34.2467 218.247 38.5 213 38.5H13C7.7533 38.5 3.5 34.2467 3.5 29V10Z" stroke="#B2A0A0"/>
</g>
<defs>
<filter id="filter0_d_83_132" x="0" y="0" width="226" height="46" filterUnits="userSpaceOnUse" color-interpolation-filters="sRGB">
<feFlood flood-opacity="0" result="BackgroundImageFix"/>
<feColorMatrix in="SourceAlpha" type="matrix" values="0 0 0 0 0 0 0 0 0 0 0 0 0 0 0 0 0 0 127 0" result="hardAlpha"/>
<feOffset dy="4"/>
<feGaussianBlur stdDeviation="1.5"/>
<feComposite in2="hardAlpha" operator="out"/>
<feColorMatrix type="matrix" values="0 0 0 0 0 0 0 0 0 0 0 0 0 0 0 0 0 0 0.25 0"/>
<feBlend mode="normal" in2="BackgroundImageFix" result="effect1_dropShadow_83_132"/>
<feBlend mode="normal" in="SourceGraphic" in2="effect1_dropShadow_83_132" result="shape"/>
</filter>
</defs>
</svg>
