<svg width="36" height="40" viewBox="0 0 36 40" fill="none" xmlns="http://www.w3.org/2000/svg">
<path d="M18 8.61072C16.7285 8.61072 15.4856 9.02569 14.4285 9.80317C13.3713 10.5806 12.5473 11.6857 12.0608 12.9786C11.5742 14.2715 11.4469 15.6941 11.6949 17.0667C11.943 18.4392 12.5552 19.6999 13.4543 20.6895C14.3534 21.679 15.4988 22.3529 16.7458 22.6259C17.9929 22.8989 19.2854 22.7588 20.4601 22.2233C21.6348 21.6877 22.6388 20.7808 23.3451 19.6173C24.0515 18.4537 24.4286 17.0857 24.4286 15.6863C24.4286 13.8097 23.7513 12.01 22.5457 10.6831C21.3401 9.35618 19.7049 8.61072 18 8.61072Z" fill="white"/>
<path d="M18 0.119995C14.4399 0.119995 10.9598 1.28193 7.99974 3.45885C5.03966 5.63578 2.73255 8.72993 1.37018 12.35C0.0077991 15.9701 -0.348661 19.9536 0.345873 23.7967C1.04041 27.6397 2.75474 31.1698 5.27208 33.9405C7.78943 36.7112 10.9967 38.5981 14.4884 39.3625C17.98 40.127 21.5992 39.7346 24.8883 38.2351C28.1774 36.7357 30.9886 34.1964 32.9665 30.9383C34.9443 27.6803 36 23.85 36 19.9316C35.9946 14.6791 34.0964 9.6434 30.7219 5.9293C27.3474 2.2152 22.7722 0.125988 18 0.119995ZM28.2754 32.5629C28.2498 30.7068 27.5627 28.936 26.3622 27.6321C25.1616 26.3282 23.5438 25.5956 21.8571 25.5921H14.1429C12.4562 25.5956 10.8384 26.3282 9.63783 27.6321C8.4373 28.936 7.7502 30.7068 7.72458 32.5629C5.39302 30.2715 3.7488 27.2546 3.00965 23.9118C2.2705 20.5691 2.47128 17.058 3.5854 13.8436C4.69952 10.6292 6.67443 7.86303 9.24863 5.91145C11.8228 3.95986 14.8749 2.91488 18.0006 2.91488C21.1264 2.91488 24.1785 3.95986 26.7527 5.91145C29.3269 7.86303 31.3018 10.6292 32.4159 13.8436C33.53 17.058 33.7308 20.5691 32.9916 23.9118C32.2525 27.2546 30.6083 30.2715 28.2767 32.5629H28.2754Z" fill="white"/>
</svg>
