<svg width="36" height="36" viewBox="0 0 36 36" fill="none" xmlns="http://www.w3.org/2000/svg">
<path d="M18 7.71436C16.7285 7.71436 15.4856 8.09139 14.4285 8.79777C13.3713 9.50415 12.5473 10.5082 12.0608 11.6828C11.5742 12.8575 11.4469 14.1501 11.6949 15.3971C11.943 16.6441 12.5552 17.7896 13.4543 18.6886C14.3534 19.5877 15.4988 20.1999 16.7458 20.448C17.9929 20.696 19.2854 20.5687 20.4601 20.0822C21.6348 19.5956 22.6388 18.7716 23.3451 17.7144C24.0515 16.6573 24.4286 15.4144 24.4286 14.1429C24.4286 12.438 23.7513 10.8028 22.5457 9.59724C21.3401 8.39165 19.7049 7.71436 18 7.71436Z" fill="white"/>
<path d="M18 0C14.4399 0 10.9598 1.05568 7.99974 3.03355C5.03966 5.01141 2.73255 7.82263 1.37018 11.1117C0.0077991 14.4008 -0.348661 18.02 0.345873 21.5116C1.04041 25.0033 2.75474 28.2106 5.27208 30.7279C7.78943 33.2453 10.9967 34.9596 14.4884 35.6541C17.98 36.3487 21.5992 35.9922 24.8883 34.6298C28.1774 33.2674 30.9886 30.9603 32.9665 28.0003C34.9443 25.0402 36 21.5601 36 18C35.9946 13.2278 34.0964 8.65257 30.7219 5.27809C27.3474 1.90362 22.7722 0.00544464 18 0ZM28.2754 29.4763C28.2498 27.7899 27.5627 26.181 26.3622 24.9963C25.1616 23.8117 23.5438 23.146 21.8571 23.1429H14.1429C12.4562 23.146 10.8384 23.8117 9.63783 24.9963C8.4373 26.181 7.7502 27.7899 7.72458 29.4763C5.39302 27.3944 3.7488 24.6534 3.00965 21.6163C2.2705 18.5792 2.47128 15.3892 3.5854 12.4687C4.69952 9.54819 6.67443 7.035 9.24863 5.26187C11.8228 3.48874 14.8749 2.53932 18.0006 2.53932C21.1264 2.53932 24.1785 3.48874 26.7527 5.26187C29.3269 7.035 31.3018 9.54819 32.4159 12.4687C33.53 15.3892 33.7308 18.5792 32.9916 21.6163C32.2525 24.6534 30.6083 27.3944 28.2767 29.4763H28.2754Z" fill="white"/>
</svg>
