<svg width="36" height="36" viewBox="0 0 36 36" fill="none" xmlns="http://www.w3.org/2000/svg">
<path d="M26.1803 19.8C27.5298 19.8 28.7173 19.062 29.3291 17.946L35.7707 6.264C36.4365 5.076 35.5728 3.6 34.2053 3.6H7.57519L5.88381 0H0V3.6H3.59866L10.0763 17.262L7.64716 21.654C6.33365 24.066 8.06101 27 10.796 27H32.388V23.4H10.796L12.7753 19.8H26.1803ZM9.28455 7.2H31.1464L26.1803 16.2H13.549L9.28455 7.2ZM10.796 28.8C8.81673 28.8 7.21532 30.42 7.21532 32.4C7.21532 34.38 8.81673 36 10.796 36C12.7753 36 14.3947 34.38 14.3947 32.4C14.3947 30.42 12.7753 28.8 10.796 28.8ZM28.7893 28.8C26.81 28.8 25.2086 30.42 25.2086 32.4C25.2086 34.38 26.81 36 28.7893 36C30.7686 36 32.388 34.38 32.388 32.4C32.388 30.42 30.7686 28.8 28.7893 28.8Z" fill="white"/>
</svg>
