<svg width="36" height="40" viewBox="0 0 36 40" fill="none" xmlns="http://www.w3.org/2000/svg">
<path d="M26.1803 21.9128C27.5298 21.9128 28.7173 21.1005 29.3291 19.8722L35.7707 7.01444C36.4365 5.70687 35.5728 4.08232 34.2053 4.08232H7.57519L5.88381 0.119995H0V4.08232H3.59866L10.0763 19.1193L7.64716 23.9534C6.33365 26.6081 8.06101 29.8374 10.796 29.8374H32.388V25.8751H10.796L12.7753 21.9128H26.1803ZM9.28455 8.04464H31.1464L26.1803 17.9504H13.549L9.28455 8.04464ZM10.796 31.8186C8.81673 31.8186 7.21532 33.6016 7.21532 35.7809C7.21532 37.9602 8.81673 39.7432 10.796 39.7432C12.7753 39.7432 14.3947 37.9602 14.3947 35.7809C14.3947 33.6016 12.7753 31.8186 10.796 31.8186ZM28.7893 31.8186C26.81 31.8186 25.2086 33.6016 25.2086 35.7809C25.2086 37.9602 26.81 39.7432 28.7893 39.7432C30.7686 39.7432 32.388 37.9602 32.388 35.7809C32.388 33.6016 30.7686 31.8186 28.7893 31.8186Z" fill="white"/>
</svg>
